<?xml version="1.0" standalone="no"?>
<!DOCTYPE svg PUBLIC "-//W3C//DTD SVG 20010904//EN"
 "http://www.w3.org/TR/2001/REC-SVG-20010904/DTD/svg10.dtd">
<svg version="1.0" xmlns="http://www.w3.org/2000/svg"
 width="450.000000pt" height="450.000000pt" viewBox="0 0 450.000000 450.000000"
 preserveAspectRatio="xMidYMid meet">
<metadata>
Created by potrace 1.14, written by Peter Selinger 2001-2017
</metadata>
<g transform="translate(0.000000,450.000000) scale(0.100000,-0.100000)"
fill="#000000" stroke="none">
<path d="M2285 4320 c-3 -11 -11 -20 -17 -20 -6 0 -9 -3 -5 -6 7 -7 -43 -126
-58 -136 -5 -4 -6 -8 -1 -8 5 0 4 -6 -1 -12 -11 -14 -33 -78 -32 -92 0 -5 -5
-12 -11 -16 -7 -4 -13 -19 -13 -34 -1 -14 -5 -26 -9 -26 -5 0 -19 -30 -23 -50
0 -3 -11 -35 -23 -72 -12 -37 -23 -75 -25 -85 -1 -10 -6 -24 -11 -31 -4 -7 -5
-16 -2 -19 3 -3 1 -13 -4 -23 -11 -21 -27 -102 -35 -174 -3 -33 -25 -77 -25
-51 0 6 -11 23 -24 38 -24 28 -27 28 -63 16 -21 -7 -53 -20 -70 -30 -18 -10
-33 -15 -33 -11 0 4 -4 2 -8 -3 -4 -6 -33 -23 -64 -40 -32 -16 -58 -33 -58
-37 0 -4 -5 -8 -11 -8 -13 0 -76 -45 -108 -78 l-24 -25 -16 21 c-9 11 -32 44
-51 72 -19 28 -41 58 -47 65 -7 7 -13 18 -13 24 0 6 -4 11 -10 11 -5 0 -10 4
-10 10 0 10 -20 37 -52 72 -10 10 -18 21 -18 24 0 4 -12 21 -27 39 -16 18 -39
48 -53 66 -76 100 -235 263 -249 255 -6 -4 -9 -12 -6 -17 4 -5 1 -9 -6 -9 -7
0 -9 -3 -6 -6 3 -4 2 -14 -3 -24 -5 -9 -12 -39 -16 -66 -3 -27 -9 -51 -13 -54
-3 -3 -7 -18 -8 -35 -1 -16 -4 -41 -7 -55 -12 -61 -20 -126 -31 -240 -2 -25
-6 -67 -9 -95 -6 -58 -18 -284 -17 -302 2 -27 2 -42 -2 -198 l-4 -160 -49 -52
c-27 -29 -58 -64 -69 -79 -11 -14 -30 -37 -42 -49 -13 -13 -23 -27 -23 -31 0
-3 -12 -21 -27 -40 -56 -67 -78 -99 -75 -106 1 -4 -3 -8 -10 -8 -6 0 -8 -3 -5
-7 4 -3 2 -12 -4 -20 -9 -9 -8 -13 0 -13 6 0 11 -7 11 -15 0 -8 5 -15 12 -15
6 0 8 -3 5 -6 -4 -4 2 -19 13 -34 11 -15 17 -30 13 -33 -3 -4 2 -9 11 -13 9
-3 16 -14 16 -24 0 -10 7 -23 15 -30 8 -7 12 -16 9 -21 -3 -5 -1 -9 4 -9 4 0
17 -17 28 -37 36 -67 49 -88 58 -95 14 -10 16 -81 2 -103 -11 -19 -17 -47 -20
-107 0 -16 -4 -28 -8 -28 -8 0 -7 -381 1 -395 3 -5 6 -19 7 -30 3 -33 13 -97
24 -145 6 -25 13 -58 16 -75 3 -16 9 -32 12 -35 4 -3 8 -14 10 -25 3 -22 9
-49 12 -52 2 -2 3 -6 4 -10 11 -42 31 -93 36 -93 4 0 7 -6 7 -14 0 -23 25 -76
36 -76 6 0 8 -3 4 -6 -5 -6 58 -132 72 -144 13 -11 31 -51 31 -69 0 -11 -7
-27 -16 -35 -9 -9 -17 -22 -18 -29 -1 -6 -6 -19 -11 -27 -5 -8 -10 -19 -12
-25 -1 -5 -10 -33 -21 -62 -11 -28 -17 -54 -14 -57 3 -3 1 -6 -4 -6 -5 0 -10
-8 -11 -17 -1 -10 -3 -25 -5 -33 -17 -59 -30 -141 -32 -191 l-3 -59 1828 0
1829 0 0 1823 0 1822 -67 2 c-94 3 -267 13 -303 17 -17 2 -33 -1 -36 -5 -3 -5
-11 -6 -17 -2 -21 13 -161 13 -169 0 -6 -9 -8 -9 -8 0 0 11 -98 11 -237 -1
-35 -3 -63 -2 -64 2 -1 4 -2 18 -4 32 -4 40 -14 97 -25 142 -6 24 -13 57 -16
73 -3 17 -10 35 -15 41 -5 6 -7 13 -4 16 3 3 -8 40 -24 84 -46 127 -67 175
-72 170 -3 -3 -5 3 -6 13 -1 9 -11 34 -23 54 -19 33 -24 35 -45 25 -14 -6 -27
-19 -30 -30 -4 -10 -11 -18 -16 -18 -5 0 -28 -21 -51 -47 -24 -25 -53 -57 -65
-70 -12 -12 -19 -23 -15 -23 4 0 0 -6 -8 -13 -9 -7 -31 -34 -50 -62 -19 -27
-38 -52 -41 -55 -10 -9 -33 -55 -31 -62 1 -5 -2 -8 -7 -8 -10 0 -46 -70 -43
-82 1 -5 -2 -8 -6 -8 -9 0 -37 -64 -33 -76 2 -4 -1 -10 -6 -13 -5 -3 -15 -25
-21 -48 -12 -39 -30 -58 -33 -33 -3 19 -5 25 -21 60 -54 114 -98 213 -98 219
0 4 -6 13 -12 20 -7 6 -13 15 -13 19 0 4 -18 38 -40 76 -22 37 -44 77 -50 87
-5 10 -13 19 -17 19 -5 0 -8 7 -8 15 0 8 -4 15 -10 15 -5 0 -10 7 -10 15 0 37
-44 0 -76 -63 -11 -20 -22 -39 -25 -42 -8 -6 -24 -53 -21 -62 4 -16 -6 -7 -23
18 -9 15 -12 23 -5 19 7 -4 5 4 -4 17 -9 14 -13 28 -9 31 3 4 2 7 -4 7 -6 0
-17 15 -24 33 -12 29 -26 49 -54 81 -6 6 -21 26 -34 44 -32 45 -58 58 -66 32z"/>
</g>
</svg>
